<svg version="1.1" id="Layer_1" xmlns="http://www.w3.org/2000/svg" xmlns:xlink="http://www.w3.org/1999/xlink" x="0px" y="0px" viewBox="0 0 500 500" style="width: auto;" xml:space="preserve" data-imageid="decision-77" imageName="Decision">
<style type="text/css">
	.st0_decision-77{fill:#D1D3D4;}
	.st1_decision-77{fill:#FFFFFF;}
	.st2_decision-77{fill:#231F20;}
	.st3_decision-77{fill:#68E1FD;}
</style>
<g id="Ground_decision-77">
	<path class="st0_decision-77" d="M381.2,373.6H118.8c-0.4,0-0.7-0.3-0.7-0.7c0-0.4,0.3-0.7,0.7-0.7c0,0,0,0,0,0h262.4c0.4,0,0.7,0.3,0.7,0.7&#10;&#9;&#9;C381.9,373.3,381.6,373.6,381.2,373.6z"/>
</g>
<g id="Character_decision-77">
	<path class="st1_decision-77" d="M178.5,388c-0.8,0.2,15.3,3.1,19,4.7c1.2,0.5,1.1,7.6,1.1,7.6l-42.5,1.9v-18.8L178.5,388z"/>
	<path class="st2_decision-77" d="M156,402.9c-0.2,0-0.4-0.1-0.5-0.2c-0.1-0.1-0.2-0.3-0.2-0.5v-18.8c0-0.2,0.1-0.4,0.2-0.5&#10;&#9;&#9;c0.2-0.1,0.4-0.2,0.6-0.1l22.5,4.6c0.1,0,0.2,0.1,0.3,0.1c0.6,0.2,2.8,0.6,4.9,1.1c4.9,1,11.7,2.5,14,3.5c1.4,0.6,1.6,4.8,1.5,8.2&#10;&#9;&#9;c0,0.4-0.3,0.7-0.7,0.7L156,402.9z M156.7,384.2v17.2l41.2-1.9c0-3.1-0.3-5.9-0.7-6.3c-2.1-0.9-9.1-2.4-13.6-3.4&#10;&#9;&#9;c-1.8-0.3-3.6-0.7-5.4-1.3L156.7,384.2z"/>
	<path class="st1_decision-77" d="M166.1,395.3v15c0,0,35.3,1.9,36.1,0s0-6.3,0-6.3s-22.4-6.1-22.4-6.8S166.1,395.3,166.1,395.3z"/>
	<path class="st2_decision-77" d="M191.1,411.9c-6,0-14.3-0.3-25-0.9c-0.4,0-0.7-0.3-0.7-0.7v-15c0-0.4,0.3-0.7,0.7-0.7c0,0,0,0,0.1,0&#10;&#9;&#9;c11.7,1,13.8,1.6,14.2,2.2c1.6,0.9,14.2,4.4,22,6.5c0.3,0.1,0.5,0.3,0.5,0.5c0.1,0.5,0.8,4.6,0,6.6&#10;&#9;&#9;C202.4,411.4,198.5,411.9,191.1,411.9z M166.8,409.6c15.6,0.8,32.8,1.2,34.8,0.3c0.4-1.3,0.2-4,0-5.3c-17.7-4.8-21.4-6.2-22.2-6.9&#10;&#9;&#9;c-0.8-0.4-6.8-1.1-12.5-1.6L166.8,409.6z M179.2,397.6L179.2,397.6z"/>
	<path class="st2_decision-77" d="M148.7,270.8c0,1.1,3.8,120.5,3.8,120.5s23.9,3,23.9,0s5.3-123.9,5.3-123.9L148.7,270.8z"/>
	<path class="st2_decision-77" d="M145.2,260.9c0,1.1,0,12.1,2.7,16.3s14,120.9,14,120.9h22.3c0,0,13-131.5,12.6-139.1L145.2,260.9z"/>
	<polygon class="st1_decision-77" points="228.7,292.4 178.5,308.6 191.4,312.4 243.4,294.8 &#9;"/>
	<path class="st2_decision-77" d="M191.4,313.1c-0.1,0-0.1,0-0.2,0l-12.9-3.8c-0.3-0.1-0.5-0.4-0.5-0.7c0-0.3,0.2-0.6,0.5-0.7l50.2-16.2&#10;&#9;&#9;c0.1,0,0.2,0,0.3,0l14.6,2.4c0.4,0.1,0.6,0.5,0.6,0.8c0,0.2-0.2,0.4-0.4,0.5l-52,17.6C191.5,313.1,191.4,313.1,191.4,313.1z&#10;&#9;&#9; M180.9,308.6l10.5,3.1l49.1-16.7l-11.7-1.9L180.9,308.6z"/>
	<polygon class="st1_decision-77" points="178.5,308.6 180.2,356.4 193.2,359.9 191.4,312.4 &#9;"/>
	<path class="st2_decision-77" d="M193.2,360.6c-0.1,0-0.1,0-0.2,0l-12.9-3.5c-0.3-0.1-0.5-0.3-0.5-0.6l-1.8-47.8c0-0.2,0.1-0.4,0.3-0.6&#10;&#9;&#9;c0.2-0.1,0.4-0.2,0.6-0.1l12.9,3.8c0.3,0.1,0.5,0.3,0.5,0.6l1.8,47.5c0,0.2-0.1,0.4-0.3,0.6C193.5,360.6,193.3,360.6,193.2,360.6z&#10;&#9;&#9; M180.9,355.9l11.5,3.1l-1.8-46.1l-11.5-3.4L180.9,355.9z"/>
	<polygon class="st1_decision-77" points="193.2,359.9 242,339.7 243.4,294.8 191.4,312.4 &#9;"/>
	<path class="st2_decision-77" d="M193.2,360.6c-0.1,0-0.3,0-0.4-0.1c-0.2-0.1-0.3-0.3-0.3-0.6l-1.8-47.5c0-0.3,0.2-0.6,0.5-0.7l52-17.6&#10;&#9;&#9;c0.2-0.1,0.5,0,0.6,0.1c0.2,0.1,0.3,0.4,0.3,0.6l-1.3,44.9c0,0.3-0.2,0.5-0.4,0.6l-48.9,20.2C193.4,360.6,193.3,360.6,193.2,360.6z&#10;&#9;&#9; M192.1,312.9l1.8,46l47.5-19.7l1.3-43.5L192.1,312.9z"/>
	<path class="st0_decision-77" d="M185.8,353.3c-0.4,0-0.7-0.3-0.7-0.7l-1.6-38.9c0-0.4,0.3-0.7,0.7-0.7c0,0,0,0,0,0c0.4,0,0.7,0.3,0.7,0.7&#10;&#9;&#9;l1.6,38.9C186.5,352.9,186.2,353.3,185.8,353.3C185.9,353.3,185.9,353.3,185.8,353.3L185.8,353.3z"/>
	<path class="st2_decision-77" d="M221,299.2c-0.4,0-0.7-0.3-0.7-0.7l0,0v-7.4l-8.4,3.1c-0.4,0.1-0.8-0.1-0.9-0.4c-0.1-0.4,0.1-0.8,0.4-0.9&#10;&#9;&#9;l9.4-3.4c0.2-0.1,0.5-0.1,0.6,0.1c0.2,0.1,0.3,0.3,0.3,0.6v8.4C221.7,298.9,221.4,299.2,221,299.2C221,299.2,221,299.2,221,299.2z"/>
	<path class="st1_decision-77" d="M213.4,279.7c0.1,0.2,3.5,14.1,3,15.8c-0.9,3-5.8,4.6-8.6,4.8c-3.2,0.3-6.8-2-8.4-4.6c-1-1.6-1.1-3.6-0.3-5.3&#10;&#9;&#9;c0.6-1,1.4-1.8,2.3-2.5c0.3-0.2,0.5-0.4,0.5-0.8c0-0.2,0-0.5-0.1-0.7c-0.9-2.7-1.8-5.4-2.7-8c2.1-0.5,5.1,0.4,7.2,0.6&#10;&#9;&#9;C206.9,279,213.3,279.3,213.4,279.7z"/>
	<path class="st2_decision-77" d="M207.3,300.9c-3.5-0.2-6.7-2-8.5-5c-1.1-1.8-1.3-4-0.4-5.9c0.6-1,1.4-1.9,2.3-2.6l0.1-0.1&#10;&#9;&#9;c0.1-0.1,0.3-0.3,0.3-0.4c0-0.1,0-0.2-0.1-0.3l-2.7-8c-0.1-0.2-0.1-0.4,0-0.5c0.1-0.2,0.2-0.3,0.4-0.4c1.8-0.3,3.7-0.2,5.5,0.3&#10;&#9;&#9;c0.7,0.1,1.4,0.2,2,0.3l0.9,0.1c6.5,0.4,6.5,0.6,6.7,1.2l0,0l-0.7,0.2l0.7-0.1c1.1,4.3,3.5,14.4,3,16.1c-1,3.4-6.2,5-9.2,5.3H207.3&#10;&#9;&#9;z M200.1,278.9l2.4,7.2c0.1,0.3,0.2,0.7,0.1,1c-0.1,0.5-0.4,0.9-0.8,1.2l-0.1,0.1c-0.8,0.6-1.5,1.4-2,2.2c-0.7,1.5-0.6,3.2,0.3,4.6&#10;&#9;&#9;c1.5,2.6,5,4.5,7.8,4.3s7.2-1.7,8-4.3c0.3-1-1.3-8.4-2.9-15c-1-0.2-4.4-0.4-5.5-0.5l-0.9-0.1c-0.6-0.1-1.4-0.2-2.1-0.3&#10;&#9;&#9;C202.9,279,201.5,278.9,200.1,278.9z"/>
	<polygon class="st2_decision-77" points="195.3,271.5 197.2,281.1 215.7,281.1 212.8,269.2 &#9;"/>
	<path class="st1_decision-77" d="M167.3,160.6c-1.1-0.1-2.2-0.4-3.2-0.8c-0.8-0.2-1.5-0.7-2.1-1.4c-0.5-0.7-0.5-1.7,0.1-2.3&#10;&#9;&#9;c0.2-0.1,0.4-0.3,0.5-0.5c0-0.2-0.1-0.5-0.3-0.6c-3.2-3.9-5.6-8.4-7-13.3c-0.7-2.2-1-4.5-0.7-6.8c0.2-1.5,0.9-3,2-4.1&#10;&#9;&#9;c0.8-0.9,2-1.1,2.4-2.3c2.7-7.6,11.6-8.3,18.3-7.6c3.9,0.4,9,1.9,10.4,5.8c2.6,7.2,1.2,15.2-2.5,21.8S175.2,161.6,167.3,160.6z"/>
	<path class="st2_decision-77" d="M168.8,161.4c-0.5,0-1.1,0-1.6-0.1l0,0c-1.1-0.1-2.3-0.4-3.4-0.8c-0.9-0.3-1.8-0.9-2.4-1.6&#10;&#9;&#9;c-0.7-1-0.6-2.4,0.3-3.2l0.2-0.1l0,0c0,0,0,0,0-0.1c-3.3-4-5.7-8.6-7.1-13.6c-0.8-2.3-1-4.7-0.7-7.1c0.3-1.7,1-3.2,2.1-4.5&#10;&#9;&#9;c0.3-0.3,0.7-0.6,1.1-0.9c0.6-0.4,1-0.7,1.2-1.2c2.9-8,11.9-8.8,19-8.1c2.7,0.3,9.3,1.4,11,6.2c2.5,6.9,1.6,15.1-2.5,22.4&#10;&#9;&#9;C181.5,156.8,175.1,161.4,168.8,161.4z M167.4,159.9c9.3,1.1,15.7-8.8,17.4-11.9c3.9-6.9,4.8-14.7,2.4-21.2&#10;&#9;&#9;c-1.5-4.1-7.4-5.1-9.8-5.3c-6.6-0.7-15,0-17.6,7.2c-0.3,0.8-0.9,1.5-1.7,1.9c-0.3,0.2-0.6,0.4-0.9,0.7c-1,1.1-1.6,2.4-1.8,3.8&#10;&#9;&#9;c-0.3,2.2,0,4.4,0.7,6.5c1.4,4.8,3.7,9.2,6.9,13.1c0.3,0.3,0.5,0.8,0.4,1.2c-0.1,0.3-0.3,0.6-0.6,0.8c-0.4,0.4-0.4,1-0.1,1.4&#10;&#9;&#9;c0.5,0.5,1.1,0.9,1.8,1.1C165.4,159.5,166.4,159.8,167.4,159.9L167.4,159.9z"/>
	<path class="st1_decision-77" d="M190,144.1c0,0,5.9,6.6,5.2,8.3s-4.3,1.2-4.3,1.2"/>
	<path class="st2_decision-77" d="M192.1,154.4c-0.4,0-0.9,0-1.3-0.1c-0.4-0.1-0.6-0.5-0.5-0.8c0.1-0.3,0.4-0.6,0.7-0.5c1,0.1,3.1,0.1,3.5-0.8&#10;&#9;&#9;c0.2-0.7-2.1-4.2-5-7.5c-0.3-0.3-0.2-0.7,0.1-1c0.3-0.3,0.7-0.2,1,0c0,0,0,0,0,0c1.9,2.1,6.1,7.2,5.3,9&#10;&#9;&#9;C195.1,154.1,193.3,154.4,192.1,154.4z"/>
	<path class="st1_decision-77" d="M187.5,134.6c3.5,2.1,3.4,7.5,3.8,11c0.7,4.9,1.3,9.8,1.7,14.7c0.3,3.1-7.7,4.4-9.2,3.6l3.1,12l-17.8-4&#10;&#9;&#9;l-1.6-14.2c0,0,5.3-0.7,7.5-7.5s0.6-16.4,0.6-16.4S184.1,132.6,187.5,134.6z"/>
	<path class="st2_decision-77" d="M186.9,176.6h-0.1l-17.8-4c-0.3-0.1-0.5-0.3-0.5-0.6l-1.6-14.2c0-0.4,0.2-0.7,0.6-0.8c0.2,0,4.9-0.8,6.9-7&#10;&#9;&#9;c2.1-6.5,0.6-16,0.6-16.1c0-0.2,0-0.4,0.1-0.5c0.1-0.1,0.3-0.2,0.5-0.3c0.4-0.1,8.7-1.3,12.3,0.8c3.2,1.9,3.6,6.2,4,9.6&#10;&#9;&#9;c0.1,0.7,0.1,1.3,0.2,1.9c0.7,4.9,1.3,9.8,1.7,14.7c0.1,1.1-0.5,2.1-1.5,2.7c-2.3,1.3-4.9,2-7.5,1.9l2.8,11&#10;&#9;&#9;c0.1,0.4-0.1,0.8-0.5,0.9C187,176.7,187,176.7,186.9,176.6L186.9,176.6z M169.8,171.4l16.1,3.6l-2.8-10.9c-0.1-0.4,0.1-0.8,0.5-0.9&#10;&#9;&#9;c0.2,0,0.4,0,0.5,0.1c0.8,0.4,5.2,0,7.4-1.5c0.6-0.4,0.9-0.9,0.9-1.4c-0.5-4.9-1-9.8-1.7-14.6c-0.1-0.6-0.1-1.2-0.2-1.9&#10;&#9;&#9;c-0.3-3.1-0.7-7-3.3-8.6l0,0c-2.6-1.5-8.6-1-10.7-0.7c0.3,2.4,1.1,10.2-0.8,16s-5.8,7.4-7.4,7.8L169.8,171.4z"/>
	<path class="st1_decision-77" d="M192.4,156.6c0,0-1.7-0.7-6.3-0.7"/>
	<path class="st2_decision-77" d="M192.4,157.4c-0.1,0-0.2,0-0.2,0c-2-0.5-4-0.7-6.1-0.6l0,0c-0.4,0-0.7-0.3-0.7-0.7c0-0.4,0.4-0.7,0.8-0.7&#10;&#9;&#9;c0,0,0,0,0,0c4.6,0,6.4,0.7,6.4,0.7c0.4,0.1,0.5,0.6,0.4,0.9c0,0,0,0,0,0C192.9,157.2,192.7,157.4,192.4,157.4z"/>
	<path class="st1_decision-77" d="M181.1,148.7c-0.3-1.2-0.9-2.3-1.9-3.1c-0.6-0.8-1.3-1.4-2.1-2c-0.8-0.5-1.8-0.7-2.7-0.4&#10;&#9;&#9;c-0.8,0.3-1.4,1-1.7,1.8c-0.3,0.8-0.3,1.7-0.2,2.5c0.4,3.8,2.8,7,6.2,8.6l-0.3-0.2"/>
	<path class="st2_decision-77" d="M178.7,156.7c-0.1,0-0.2,0-0.3-0.1c-3.7-1.6-6.2-5.1-6.6-9.1c-0.1-0.9,0-1.9,0.3-2.8c0.3-1,1.1-1.8,2.1-2.2&#10;&#9;&#9;c1.1-0.4,2.4-0.2,3.4,0.5c0.9,0.6,1.6,1.3,2.2,2.1c1,1,1.7,2.2,2,3.5c0.1,0.4-0.2,0.7-0.6,0.8c-0.4,0.1-0.7-0.2-0.8-0.6&#10;&#9;&#9;c-0.3-1.1-0.9-2-1.7-2.8c-0.6-0.7-1.2-1.3-1.9-1.8c-0.6-0.4-1.4-0.6-2.1-0.4c-0.6,0.3-1.1,0.8-1.3,1.4c-0.2,0.7-0.3,1.5-0.2,2.2&#10;&#9;&#9;c0.3,3.2,2.3,6.1,5.1,7.7c0.2,0,0.3,0,0.5,0.1l0.3,0.2c0.3,0.2,0.4,0.6,0.2,0.9C179.1,156.6,178.9,156.7,178.7,156.7z"/>
	<path class="st2_decision-77" d="M183.8,163.9c0,0-4.3-0.7-6.7-3.2c0.8,3.9,3.9,6.9,7.8,7.6L183.8,163.9z"/>
	<path class="st2_decision-77" d="M184.9,169h-0.1c-7.1-1.3-8.4-8.1-8.4-8.2c-0.1-0.4,0.2-0.7,0.6-0.8c0.2,0,0.5,0,0.7,0.2c2.1,2.4,6.2,3,6.3,3&#10;&#9;&#9;c0.3,0,0.5,0.2,0.6,0.5l1.1,4.4c0.1,0.4-0.1,0.8-0.5,0.9C185,169,185,169,184.9,169L184.9,169z M178.6,162.7c1.1,2.3,3,3.9,5.4,4.6&#10;&#9;&#9;l-0.7-2.9C181.6,164.2,180,163.6,178.6,162.7L178.6,162.7z"/>
	
		<ellipse transform="matrix(2.059343e-02 -0.9998 0.9998 2.059343e-02 41.7025 324.9647)" class="st2_decision-77" cx="186.7" cy="141.2" rx="1.8" ry="0.7"/>
	<path class="st1_decision-77" d="M164.2,174.2l1.8-6.3c0,0,22,1.8,24,3.1s3.8,8.3,3.8,8.3L164.2,174.2z"/>
	<path class="st2_decision-77" d="M193.8,180.1h-0.1l-29.6-5.2c-0.4-0.1-0.6-0.4-0.6-0.8c0,0,0,0,0-0.1l1.8-6.3c0.1-0.3,0.4-0.5,0.7-0.5&#10;&#9;&#9;c3.7,0.3,22.3,1.9,24.3,3.3s3.9,8,4.1,8.7c0.1,0.2,0,0.5-0.2,0.6C194.2,180.1,194,180.1,193.8,180.1z M165.1,173.7l27.7,4.9&#10;&#9;&#9;c-0.8-2.6-2.1-6.1-3.2-6.9c-1.3-0.9-14.6-2.3-23.1-3L165.1,173.7z"/>
	<path class="st3_decision-77 targetColor" d="M199.5,179.4c-10.6-6.9-22.8-10.5-40-5.6c-13.5,3.9-16.8,66.3-14.2,91.2h63.5l-0.6-11.1&#10;&#9;&#9;C208.2,254,210.1,186.3,199.5,179.4z" style="fill: rgb(0, 71, 255);"/>
	<path class="st3_decision-77 targetColor" d="M193.8,275.2h23.5c-1.5-11.8-14.8-92.2-15.4-92.8c-11.9-11.3-20.8,16.9-20.2,25.5&#10;&#9;&#9;C182.1,215,191.6,260.1,193.8,275.2z" style="fill: rgb(0, 71, 255);"/>
	<path class="st2_decision-77" d="M191.4,264.3c-0.3,0-0.6-0.2-0.7-0.6L180,199.2c-0.1-0.4,0.2-0.7,0.5-0.8c0,0,0,0,0,0c0.4-0.1,0.7,0.2,0.8,0.6&#10;&#9;&#9;c0,0,0,0,0,0l10.7,64.5C192.1,263.9,191.9,264.2,191.4,264.3C191.5,264.3,191.5,264.3,191.4,264.3L191.4,264.3z"/>
	<path class="st2_decision-77" d="M198.8,307.5c-0.4,0-0.7-0.3-0.7-0.7l0,0v-9.2c0-0.3,0.2-0.6,0.4-0.7l7.2-2.8c0.4-0.1,0.8,0,0.9,0.4&#10;&#9;&#9;c0.1,0.4-0.1,0.8-0.4,0.9l-6.7,2.5v8.7C199.5,307.1,199.2,307.4,198.8,307.5C198.8,307.4,198.8,307.5,198.8,307.5z"/>
	<path class="st2_decision-77" d="M221,328.1h-0.1l-29.3-6.5c-0.4,0-0.7-0.4-0.6-0.8c0-0.4,0.4-0.7,0.8-0.6c0,0,0.1,0,0.1,0l29,6.4l21.8-23&#10;&#9;&#9;c0.3-0.3,0.7-0.3,1,0c0.3,0.3,0.3,0.7,0,1c0,0,0,0,0,0l-22.1,23.3C221.4,328,221.2,328.1,221,328.1z"/>
</g>
<g id="Signpost_decision-77">
	<path class="st2_decision-77" d="M325.7,88.2h2.7c1.8,0,3.3,1.5,3.3,3.3v305.1l0,0h-9.4l0,0V91.5C322.4,89.6,323.8,88.2,325.7,88.2z"/>
	<polygon class="st1_decision-77" points="359.8,108.4 299,108.4 299,101.5 274,122 299,142.5 299,135.6 359.8,135.6 &#9;"/>
	<path class="st2_decision-77" d="M299,143.2c-0.2,0-0.3-0.1-0.4-0.2l-25-20.5c-0.2-0.1-0.2-0.3-0.2-0.6c0-0.2,0.1-0.4,0.2-0.5l25-20.5&#10;&#9;&#9;c0.2-0.2,0.5-0.2,0.7-0.1c0.2,0.1,0.4,0.4,0.4,0.6v6.2h60.1c0.4,0,0.7,0.3,0.7,0.7v27.2c0,0.4-0.3,0.7-0.7,0.7l0,0h-60.1v6.2&#10;&#9;&#9;c0,0.3-0.2,0.5-0.4,0.6C299.2,143.2,299.1,143.2,299,143.2z M275,122l23.2,19v-5.4c0-0.4,0.3-0.7,0.7-0.7h60.1v-25.7H299&#10;&#9;&#9;c-0.4,0-0.7-0.3-0.7-0.7v0V103L275,122z"/>
	<polygon class="st1_decision-77" points="295.4,155.1 356.2,155.1 356.2,148.2 381.2,168.7 356.2,189.2 356.2,182.2 295.4,182.2 &#9;"/>
	<path class="st2_decision-77" d="M356.2,189.9c-0.1,0-0.2,0-0.3-0.1c-0.2-0.1-0.4-0.4-0.4-0.6V183h-60.1c-0.4,0-0.7-0.3-0.7-0.7c0,0,0,0,0,0&#10;&#9;&#9;v-27.2c0-0.4,0.3-0.7,0.7-0.7l0,0h60.1v-6.2c0-0.3,0.2-0.5,0.4-0.6c0.2-0.1,0.5-0.1,0.8,0.1l25,20.5c0.3,0.2,0.3,0.7,0.1,1&#10;&#9;&#9;c0,0-0.1,0.1-0.1,0.1l-25,20.5C356.5,189.8,356.3,189.9,356.2,189.9z M296,181.6h60.1c0.4,0,0.7,0.3,0.7,0.7c0,0,0,0,0,0v5.4&#10;&#9;&#9;l23.2-19l-23.2-19v5.4c0,0.4-0.3,0.7-0.7,0.7l0,0H296V181.6z"/>
	<polygon class="st1_decision-77" points="297.9,194.8 353.4,219.6 356.2,213.3 370.6,242.2 339.4,250.7 342.3,244.4 286.8,219.6 &#9;"/>
	<path class="st2_decision-77" d="M339.4,251.4c-0.2,0-0.4-0.1-0.5-0.2c-0.2-0.2-0.2-0.5-0.1-0.7l2.5-5.7l-54.9-24.6c-0.2-0.1-0.3-0.2-0.4-0.4&#10;&#9;&#9;c-0.1-0.2-0.1-0.4,0-0.5l11.1-24.8c0.1-0.4,0.6-0.5,0.9-0.4c0,0,0,0,0,0l54.9,24.6l2.5-5.7c0.1-0.2,0.3-0.4,0.6-0.4&#10;&#9;&#9;c0.3,0,0.5,0.2,0.6,0.4l14.5,28.9c0.2,0.4,0,0.8-0.3,1c0,0-0.1,0-0.1,0l-31.2,8.5C339.6,251.4,339.5,251.4,339.4,251.4z&#10;&#9;&#9; M287.7,219.2l54.9,24.6c0.3,0.2,0.5,0.6,0.4,0.9l-2.2,5l29-7.9L356.2,215l-2.2,5c-0.2,0.4-0.6,0.5-0.9,0.4c0,0,0,0,0,0l-54.9-24.6&#10;&#9;&#9;L287.7,219.2z"/>
	<path class="st0_decision-77" d="M346.7,397.3h-34.2c-0.4,0-0.7-0.3-0.7-0.7s0.3-0.7,0.7-0.7c0,0,0,0,0,0h34.2c0.4,0,0.7,0.3,0.7,0.7&#10;&#9;&#9;S347.1,397.3,346.7,397.3C346.7,397.3,346.7,397.3,346.7,397.3z"/>
</g>
</svg>