<?xml version="1.0" standalone="no"?>
<!DOCTYPE svg PUBLIC "-//W3C//DTD SVG 20010904//EN"
 "http://www.w3.org/TR/2001/REC-SVG-20010904/DTD/svg10.dtd">
<svg version="1.0" xmlns="http://www.w3.org/2000/svg"
 width="1024.000000pt" height="1024.000000pt" viewBox="0 0 1024.000000 1024.000000"
 preserveAspectRatio="xMidYMid meet">

<g transform="translate(0.000000,1024.000000) scale(0.100000,-0.100000)"
fill="#000000" stroke="none">
<path d="M4700 10230 c-117 -9 -283 -28 -355 -40 -90 -16 -272 -51 -345 -67
-36 -8 -84 -18 -107 -23 -71 -15 -313 -85 -348 -100 -11 -5 -31 -12 -45 -15
-33 -9 -156 -53 -197 -71 -17 -8 -38 -14 -46 -14 -9 0 -18 -4 -21 -9 -3 -5
-17 -12 -31 -15 -14 -4 -51 -18 -83 -32 -31 -14 -84 -38 -117 -52 -286 -127
-651 -342 -935 -551 -335 -246 -716 -617 -991 -966 -234 -298 -488 -716 -631
-1040 -14 -33 -38 -86 -52 -117 -14 -32 -28 -69 -32 -83 -3 -14 -10 -28 -15
-31 -5 -3 -9 -12 -9 -21 0 -8 -6 -29 -14 -46 -13 -30 -45 -118 -79 -217 -30
-90 -92 -306 -107 -373 -5 -23 -15 -71 -23 -107 -91 -411 -116 -655 -116
-1120 0 -295 5 -403 28 -615 14 -129 48 -325 88 -505 8 -36 18 -84 23 -107 15
-67 77 -283 107 -373 34 -99 66 -187 79 -217 8 -17 14 -38 14 -46 0 -9 4 -18
9 -21 5 -3 12 -17 15 -31 4 -14 18 -51 32 -83 14 -31 38 -84 52 -117 85 -192
249 -489 390 -705 276 -422 655 -838 1077 -1181 300 -244 747 -519 1090 -671
33 -14 86 -38 117 -52 32 -14 69 -28 83 -32 14 -3 28 -10 31 -15 3 -5 12 -9
21 -9 8 0 29 -6 46 -14 30 -13 118 -45 217 -79 90 -30 306 -92 373 -107 23 -5
71 -15 107 -23 411 -91 655 -116 1120 -116 465 0 709 25 1120 116 36 8 84 18
107 23 67 15 283 77 373 107 99 34 187 66 217 79 17 8 38 14 46 14 9 0 18 4
21 9 3 5 17 12 31 15 14 4 51 18 83 32 31 14 84 38 117 52 279 123 652 343
935 551 396 290 821 721 1111 1126 188 262 397 622 511 880 14 33 38 86 52
117 14 32 28 69 32 83 3 14 10 28 15 31 5 3 9 12 9 21 0 8 6 29 14 46 13 30
45 118 79 217 30 90 92 306 107 373 5 23 15 71 23 107 91 411 116 655 116
1120 0 295 -5 403 -28 615 -14 129 -48 325 -88 505 -8 36 -18 84 -23 107 -15
67 -77 283 -107 373 -34 99 -66 187 -79 217 -8 17 -14 38 -14 46 0 9 -4 18 -9
21 -5 3 -12 17 -15 31 -4 14 -18 51 -32 83 -14 31 -38 84 -52 117 -85 192
-249 489 -390 705 -275 421 -655 838 -1077 1181 -301 245 -740 515 -1090 671
-33 14 -86 38 -117 52 -32 14 -69 28 -83 32 -14 3 -28 10 -31 15 -3 5 -12 9
-21 9 -8 0 -29 6 -46 14 -41 18 -164 62 -197 71 -14 3 -34 10 -45 15 -35 15
-277 85 -348 100 -23 5 -71 15 -107 23 -73 16 -255 51 -345 67 -72 12 -221 28
-365 40 -121 10 -703 10 -830 0z m933 -804 c552 -78 978 -207 1436 -435 501
-250 934 -587 1321 -1026 443 -503 771 -1133 936 -1800 40 -162 87 -406 79
-413 -3 -3 -24 13 -47 35 -24 23 -131 119 -238 213 -107 95 -235 209 -285 254
-49 46 -126 114 -170 153 -44 38 -118 105 -165 148 -47 43 -116 105 -155 138
-85 73 -197 174 -370 331 -71 66 -141 130 -155 143 l-26 23 -166 -148 c-146
-130 -360 -323 -668 -601 -52 -47 -109 -101 -127 -118 -17 -18 -38 -33 -45
-33 -7 1 -84 108 -170 238 -199 299 -246 366 -257 370 -5 2 -15 -6 -23 -16 -7
-11 -339 -349 -738 -752 -399 -404 -857 -867 -1017 -1029 l-293 -296 28 -23
c15 -12 50 -38 77 -57 28 -19 73 -50 100 -69 28 -20 109 -75 180 -122 72 -48
141 -97 155 -110 14 -12 39 -30 57 -41 48 -27 192 -126 348 -239 77 -55 159
-113 182 -128 l42 -28 43 35 c43 35 318 224 447 307 38 25 136 90 216 145 81
55 191 129 245 165 54 36 230 153 392 261 321 215 353 234 479 295 209 101
421 136 649 109 198 -23 417 -104 535 -199 22 -18 56 -42 76 -54 63 -38 237
-228 309 -338 125 -190 177 -316 241 -589 19 -81 19 -493 1 -585 -30 -147 -62
-262 -83 -302 -5 -10 -9 -22 -9 -28 0 -16 -78 -175 -132 -270 -82 -142 -250
-387 -365 -530 -122 -153 -404 -441 -568 -580 -289 -245 -566 -431 -866 -581
-363 -181 -725 -305 -1121 -383 -263 -52 -718 -102 -718 -78 0 9 80 77 259
220 58 46 160 129 296 242 23 19 81 67 129 105 48 39 134 108 190 155 135 112
322 264 706 574 173 140 331 268 350 284 19 16 107 86 195 157 383 308 512
428 632 590 216 290 292 626 205 900 -18 58 -25 71 -73 146 -74 113 -189 179
-314 179 -123 0 -163 -20 -498 -242 -81 -54 -150 -98 -153 -98 -2 0 -29 -18
-58 -40 -29 -22 -55 -40 -58 -40 -3 0 -39 -23 -79 -50 -110 -75 -481 -323
-501 -335 -16 -9 -139 -91 -546 -364 -62 -42 -124 -83 -137 -91 -13 -8 -50
-33 -82 -54 -32 -22 -96 -65 -144 -96 -47 -31 -98 -66 -115 -77 -16 -12 -231
-156 -479 -320 -247 -165 -488 -325 -534 -356 -46 -31 -85 -57 -87 -57 -2 0
-34 -19 -71 -41 -89 -55 -266 -141 -340 -167 -32 -11 -70 -25 -83 -30 -135
-54 -366 -96 -595 -108 -119 -6 -411 16 -480 36 -16 5 -59 16 -95 25 -301 77
-625 261 -849 485 -92 92 -211 247 -335 437 -187 287 -259 467 -311 781 -22
129 -16 454 10 567 9 39 21 93 26 120 40 198 205 515 381 732 129 159 360 347
533 433 168 84 265 117 425 145 209 37 563 3 724 -69 17 -8 52 -24 79 -35 51
-22 205 -113 275 -162 l43 -31 172 165 c283 272 2099 2087 2095 2095 -2 4 -20
35 -41 67 -183 283 -528 825 -598 938 -30 48 -61 98 -69 111 -8 13 -37 59 -64
102 -85 138 -131 204 -141 204 -10 -1 -73 -83 -186 -245 -31 -44 -100 -138
-154 -210 -101 -134 -247 -336 -300 -415 -16 -25 -68 -94 -115 -155 -47 -60
-116 -153 -154 -205 -39 -52 -94 -127 -123 -167 -29 -39 -53 -75 -53 -79 0 -3
-15 -23 -32 -44 -18 -20 -84 -106 -146 -191 -62 -85 -140 -192 -175 -238 -34
-46 -71 -96 -82 -111 -133 -182 -220 -290 -232 -290 -8 0 -85 64 -171 143 -86
79 -170 154 -186 168 -33 27 -284 246 -334 291 -18 16 -37 28 -42 26 -13 -5
-125 -97 -304 -253 -89 -77 -204 -176 -256 -219 -52 -44 -118 -100 -146 -125
-28 -25 -71 -63 -95 -83 -66 -56 -120 -102 -263 -228 -72 -63 -140 -121 -150
-130 -26 -20 -126 -106 -325 -277 -91 -78 -167 -141 -169 -139 -6 7 38 239 78
401 81 335 180 606 339 925 409 821 1097 1508 1922 1921 516 257 1015 395
1674 463 22 2 166 3 320 1 238 -2 309 -7 468 -29z"/>
<path d="M6715 8606 c-198 -48 -360 -206 -436 -423 -25 -73 -36 -238 -20 -313
44 -212 199 -399 389 -470 289 -109 615 39 751 342 37 82 51 150 51 250 0 337
-281 630 -600 627 -47 0 -107 -6 -135 -13z"/>
<path d="M2693 4605 c-356 -62 -635 -432 -635 -840 -1 -218 74 -444 200 -605
83 -106 217 -227 300 -270 22 -11 48 -30 57 -40 10 -11 26 -20 36 -20 10 0 51
-13 91 -29 124 -49 249 -71 407 -71 291 0 509 76 846 294 296 192 630 417 630
425 0 5 -34 33 -75 63 -41 30 -145 104 -230 165 -85 62 -177 128 -205 148 -92
66 -293 210 -351 250 -31 22 -138 99 -238 171 -359 259 -458 318 -580 349 -98
24 -159 26 -253 10z"/>
</g>
</svg>
